<?xml version="1.0" encoding="UTF-8"?>
<svg width="64px" height="64px" viewBox="0 0 64 64" version="1.1" xmlns="http://www.w3.org/2000/svg" xmlns:xlink="http://www.w3.org/1999/xlink">
    <title>measure_tvoc</title>
    <g id="measure_tvoc" stroke="none" stroke-width="1" fill="none" fill-rule="evenodd">
        <path d="M32.0600304,16.0056826 L32.3819945,16.0105215 C34.4865717,16.0584687 36.5945103,16.5216075 38.5761647,17.4175932 C38.7781684,17.5085463 38.9785266,17.6038097 39.17709,17.703363 L37.5856869,19.1680691 L37.2961006,19.0452781 C35.72947,18.4068902 34.0609851,18.0580815 32.3777557,18.0115372 L32.1570341,18.0071683 L31.9124049,18.0065109 L31.6204072,18.0115877 C29.7663832,18.0630952 27.930286,18.4813191 26.2284167,19.2499079 C25.3078477,19.6671763 24.4179352,20.1921816 23.5763792,20.8265925 C23.0270972,21.2406711 22.5169219,21.6874073 22.0465191,22.1620616 C21.6129027,22.6020872 21.2033021,23.075693 20.8214802,23.5825899 L20.7885354,23.6204369 C17.1510408,28.4808704 16.9853548,35.3437928 20.8214802,40.436533 C21.1537826,40.877689 21.0656818,41.5048082 20.6247017,41.8372431 C20.1837216,42.1696779 19.5568523,42.0815421 19.2245499,41.6403861 C14.3533164,35.1734634 15.1282923,26.2089668 20.718608,20.6611986 C21.8856324,19.4971619 23.2011869,18.5449393 24.6112279,17.8117933 L25.0982989,17.5690209 L25.2264316,17.5084704 C25.3921698,17.4307876 25.5588295,17.3561631 25.7263338,17.2845862 C27.7589685,16.4160129 29.9159771,15.9962018 32.0600304,16.0056826 Z M46.2997592,24.8290433 C48.9359965,30.0925218 48.5576038,36.6192762 44.7754342,41.6403861 C44.4431318,42.0815421 43.8162625,42.1696779 43.3752824,41.8372431 C42.9343023,41.5048082 42.8462015,40.877689 43.1785039,40.436533 C46.3233935,36.2614596 46.7787194,30.8966705 44.836504,26.4208415 L46.2997592,24.8290433 Z M43.3112869,20.6937565 C43.7064003,21.0890274 43.7196528,21.7256781 43.3413308,22.1370617 L35.6878784,30.4593954 C36.2979252,31.9133438 36.0112376,33.654619 34.8278158,34.8385127 C33.7280455,35.9387215 32.1470991,36.26418 30.7626502,35.8148884 L29.1120807,37.6098048 C28.3948895,38.3896713 27.1815364,38.4402478 26.4019808,37.7227706 L26.3443446,37.6674639 C25.5953219,36.9181425 25.5953219,35.7032525 26.3443446,34.953931 L26.4019808,34.8986243 L28.1961817,33.2473966 C27.7470692,31.8623958 28.0723981,30.280819 29.1721683,29.1806102 C30.3555902,27.9967165 32.0961713,27.7099146 33.5495402,28.3202047 L41.868557,20.6637007 C42.2797766,20.2852278 42.9161736,20.2984856 43.3112869,20.6937565 Z" id="Combined-Shape" fill="#000000" fill-rule="nonzero"></path>
        <g id="TVOC" transform="translate(14, 44)" fill="#000000" fill-rule="nonzero">
            <path d="M5.04443359,0.161499023 L5.04443359,11.536499 L2.77038574,11.536499 L2.77038574,0.161499023 L5.04443359,0.161499023 Z M7.87023926,0.161499023 L7.87023926,2.06274414 L0,2.06274414 L0,0.161499023 L7.87023926,0.161499023 Z" id="Shape"></path>
            <path d="M12.7336958,9.10314941 L14.8927534,0.161499023 L17.3605269,0.161499023 L14.0680464,11.536499 L12.4031294,11.536499 L12.7336958,9.10314941 Z M10.8942183,0.161499023 L13.0432661,9.10314941 L13.392021,11.536499 L11.7188032,11.536499 L8.4446333,0.161499023 L10.8942183,0.161499023 Z" id="Shape"></path>
            <path d="M26.4299435,4.96984863 L26.4299435,6.86328125 C26.4299435,7.66577148 26.3329993,8.36846924 26.139111,8.97137451 C25.9452226,9.57427979 25.6687537,10.0769043 25.3097042,10.479248 C24.9506547,10.8815918 24.5204993,11.1844279 24.0192379,11.3877563 C23.5179765,11.5910848 22.9632687,11.692749 22.3551144,11.692749 C21.7450069,11.692749 21.1884274,11.5910848 20.6853756,11.3877563 C20.1823238,11.1844279 19.7491777,10.8815918 19.3859371,10.479248 C19.0226966,10.0769043 18.7424638,9.57427979 18.5452389,8.97137451 C18.3480139,8.36846924 18.2494015,7.66577148 18.2494015,6.86328125 L18.2494015,4.96984863 C18.2494015,4.14701335 18.3463253,3.42604574 18.540173,2.8069458 C18.7340206,2.18784587 19.0129513,1.67163086 19.376965,1.25830078 C19.7409786,0.844970703 20.1732499,0.532796224 20.6737789,0.321777344 C21.1743079,0.110758464 21.7295854,0.00524902344 22.3396114,0.00524902344 C22.9477657,0.00524902344 23.5021277,0.110758464 24.0026974,0.321777344 C24.503267,0.532796224 24.9359656,0.844970703 25.3007931,1.25830078 C25.6656206,1.67163086 25.9450192,2.18784587 26.1389889,2.8069458 C26.3329586,3.42604574 26.4299435,4.14701335 26.4299435,4.96984863 Z M24.1574825,6.86328125 L24.1574825,4.95422363 C24.1574825,4.4119873 24.1182573,3.9490153 24.0398068,3.56530762 C23.9613562,3.18159993 23.8444943,2.86769613 23.6892208,2.62359619 C23.5339474,2.37949626 23.3436398,2.19991048 23.118298,2.08483887 C22.8929562,1.96976725 22.633394,1.91223145 22.3396114,1.91223145 C22.0403764,1.91223145 21.7772539,1.96976725 21.5502438,2.08483887 C21.3232337,2.19991048 21.1334143,2.37949626 20.9807858,2.62359619 C20.8281572,2.86769613 20.7143876,3.18159993 20.6394772,3.56530762 C20.5645667,3.9490153 20.5271114,4.4119873 20.5271114,4.95422363 L20.5271114,6.86328125 C20.5271114,7.38338216 20.5658281,7.82930501 20.6432613,8.2010498 C20.7206946,8.5727946 20.8374345,8.87528483 20.9934811,9.10852051 C21.1495276,9.34175618 21.3406897,9.51424154 21.5669674,9.62597656 C21.7932451,9.73771159 22.0559607,9.7935791 22.3551144,9.7935791 C22.6453162,9.7935791 22.9031083,9.73771159 23.1284908,9.62597656 C23.3538733,9.51424154 23.5428992,9.34175618 23.6955685,9.10852051 C23.8482377,8.87528483 23.9633907,8.5727946 24.0410275,8.2010498 C24.1186642,7.82930501 24.1574825,7.38338216 24.1574825,6.86328125 Z" id="Shape"></path>
            <path d="M33.5204965,7.74523926 L35.7944222,7.74523926 C35.7607308,8.60135905 35.5876962,9.32177734 35.2753182,9.90649414 C34.9629403,10.4912109 34.5188892,10.9350993 33.9431649,11.2381592 C33.3674406,11.5412191 32.6749561,11.692749 31.8657113,11.692749 C31.234445,11.692749 30.6732675,11.5866292 30.1821786,11.3743896 C29.6910897,11.1621501 29.2748503,10.8504028 28.9334603,10.4391479 C28.5920704,10.0278931 28.3336678,9.51906331 28.1582528,8.91265869 C27.9828378,8.30625407 27.8951302,7.60880534 27.8951302,6.8203125 L27.8951302,4.88513184 C27.8951302,4.09680176 27.9876799,3.39727783 28.1727792,2.78656006 C28.3578785,2.17584229 28.6228321,1.66357422 28.96764,1.24975586 C29.312448,0.8359375 29.7319629,0.524190267 30.2261849,0.31451416 C30.7204069,0.104838053 31.2774545,0 31.8973275,0 C32.725127,0 33.4178964,0.155171712 33.9756356,0.465515137 C34.5333749,0.775858561 34.9640186,1.22947184 35.2675668,1.82635498 C35.5711149,2.42323812 35.7527963,3.15303548 35.8126107,4.01574707 L33.5311166,4.01574707 C33.5167123,3.47212728 33.4564299,3.04581706 33.3502694,2.73681641 C33.2441089,2.42781576 33.0762216,2.20973714 32.8466073,2.08258057 C32.616993,1.95542399 32.3005664,1.8918457 31.8973275,1.8918457 C31.5935352,1.8918457 31.3317554,1.94460042 31.1119882,2.05010986 C30.8922209,2.1556193 30.7130217,2.32619222 30.5743905,2.56182861 C30.4357593,2.79746501 30.3337492,3.10432943 30.2683602,3.48242187 C30.2029712,3.86051432 30.1702767,4.32287598 30.1702767,4.86950684 L30.1702767,6.8203125 C30.1702767,7.35717773 30.1981901,7.81422933 30.254017,8.19146729 C30.3098438,8.56870524 30.401132,8.87638346 30.5278817,9.11450195 C30.6546314,9.35262044 30.825896,9.52697754 31.0416757,9.63757324 C31.2574553,9.74816895 31.5321338,9.8034668 31.8657113,9.8034668 C32.2501514,9.8034668 32.5604338,9.74641927 32.7965585,9.63232422 C33.0326831,9.51822917 33.2079354,9.31239827 33.3223153,9.01483154 C33.4366952,8.71726481 33.5027556,8.29406738 33.5204965,7.74523926 Z" id="Path"></path>
        </g>
        <path d="M32,8 C45.254834,8 56,18.745166 56,32 C56,35.0245234 55.4393489,37.9746744 54.360325,40.7349401 C53.9581697,41.763699 52.7981845,42.2716616 51.7694256,41.8695063 C50.7406667,41.467351 50.2327041,40.3073658 50.6348594,39.2786069 C51.5331823,36.9805951 52,34.5241961 52,32 C52,20.954305 43.045695,12 32,12 C20.954305,12 12,20.954305 12,32 C12,34.5245635 12.4669538,36.9813091 13.365531,39.2796055 C13.7677419,40.3083427 13.2598419,41.4683553 12.2311048,41.8705662 C11.2023676,42.272777 10.042355,41.7648771 9.6401441,40.7361399 C8.56081464,37.9755325 8,35.0249643 8,32 C8,18.745166 18.745166,8 32,8 Z" id="Path" fill="#000000" fill-rule="nonzero"></path>
    </g>
</svg>