<?xml version="1.0" encoding="UTF-8"?>
<svg width="64px" height="64px" viewBox="0 0 64 64" version="1.1" xmlns="http://www.w3.org/2000/svg" xmlns:xlink="http://www.w3.org/1999/xlink">
    <title>measure_pm03_cnt</title>
    <g id="measure_pm03_cnt" stroke="none" fill="none" fill-rule="evenodd">
        <path d="M11.8917535,58 L14.180816,58 L14.18,53.993 L15.7724908,53.9924316 C16.4415582,53.9924316 17.0281938,53.878348 17.5323976,53.6501808 L17.7434381,53.5454102 C18.2927545,53.2473958 18.716074,52.8299967 19.0133966,52.2932129 C19.3107192,51.756429 19.4593805,51.1191406 19.4593805,50.3813477 C19.4593805,49.6549479 19.3107192,49.0093587 19.0133966,48.4445801 C18.716074,47.8798014 18.2927545,47.4353434 17.7434381,47.1112061 C17.1941217,46.7870687 16.5371393,46.625 15.7724908,46.625 L11.8917535,46.625 L11.8917535,58 Z M14.18,52.094 L14.180816,48.5262451 L15.7724908,48.5262451 C16.0985813,48.5262451 16.362538,48.6132812 16.564361,48.7873535 C16.7661839,48.9614258 16.9140924,49.1913249 17.0080865,49.4770508 C17.1020807,49.7627767 17.1490778,50.0694173 17.1490778,50.3969727 C17.1490778,50.7220866 17.1020807,51.0131022 17.0080865,51.2700195 C16.9140924,51.5269368 16.7661839,51.7284546 16.564361,51.8745728 C16.362538,52.0206909 16.0985813,52.09375 15.7724908,52.09375 L14.18,52.094 Z M31.2673339,58 L31.2673339,46.625 L29.342163,46.625 L28.4411621,46.625 L26.1343994,54.4052734 L23.8099365,46.625 L22.9086914,46.625 L21.8037109,46.625 L20.9888916,46.625 L20.9888916,58 L23.1992187,58 L23.1992187,54.12854 L23.068,50.775 L25.2735595,58 L26.982666,58 L29.207,50.181 L29.0593261,54.12854 L29.0593261,58 L31.2673339,58 Z M36.2536669,58.15625 C36.7383674,58.15625 37.1819099,58.0628255 37.5842944,57.8759766 C37.9866788,57.6891276 38.3326464,57.398641 38.6221972,57.0045166 C38.911748,56.6103923 39.1373543,56.1066284 39.299016,55.4932251 C39.4606778,54.8798218 39.5415087,54.1457926 39.5415087,53.2911377 L39.5415087,51.3162842 C39.5415087,50.6314697 39.4893644,50.0244954 39.3850756,49.4953613 C39.2807869,48.9662272 39.1312914,48.5111287 38.9365893,48.1300659 C38.7418871,47.7490031 38.5097501,47.4355265 38.2401782,47.1896362 C37.9706062,46.9437459 37.666407,46.7621257 37.3275805,46.6447754 C36.988754,46.5274251 36.6281786,46.46875 36.2458544,46.46875 C35.7627815,46.46875 35.3187914,46.5609131 34.9138842,46.7452393 C34.508977,46.9295654 34.1608325,47.2175293 33.8694506,47.6091309 C33.5780688,48.0007324 33.3511197,48.5019328 33.1886034,49.1127319 C33.0260872,49.7235311 32.944829,50.4580485 32.944829,51.3162842 L32.944829,53.2911377 C32.944829,53.9759521 32.9970141,54.5824992 33.1013842,55.1107788 C33.2057543,55.6390584 33.3552905,56.094991 33.5499926,56.4785767 C33.7446948,56.8621623 33.978907,57.1773071 34.2526293,57.4240112 C34.5263517,57.6707153 34.831853,57.8544312 35.1691332,57.9751587 C35.5064135,58.0958862 35.8679247,58.15625 36.2536669,58.15625 Z M36.2536669,56.3360596 C36.114344,56.3360596 35.9865364,56.3058268 35.8702441,56.2453613 C35.7539518,56.1848958 35.6517992,56.0893962 35.5637866,55.9588623 C35.4757739,55.8283285 35.3999275,55.6554362 35.3362475,55.4401855 C35.2725675,55.2249349 35.2230476,54.9642334 35.1876879,54.6580811 C35.1523282,54.3519287 35.1346484,53.9963786 35.1346484,53.5914307 L35.1346484,50.9952393 C35.1346484,50.4919027 35.1596321,50.0672201 35.2095995,49.7211914 C35.259567,49.3751628 35.3341113,49.0966797 35.4332324,48.8857422 C35.5323534,48.6748047 35.6503751,48.5221965 35.7872973,48.4279175 C35.9242195,48.3336385 36.0770719,48.286499 36.2458544,48.286499 C36.3817594,48.286499 36.5069832,48.3167521 36.6215258,48.3772583 C36.7360685,48.4377645 36.8389941,48.5328979 36.9303027,48.6626587 C37.0216113,48.7924194 37.0970711,48.9615072 37.1566821,49.1699219 C37.2162931,49.3783366 37.2637377,49.634318 37.299016,49.9378662 C37.3342944,50.2414144 37.3519335,50.5938721 37.3519335,50.9952393 L37.3519335,53.5914307 C37.3519335,54.096639 37.3264819,54.5256551 37.2755785,54.878479 C37.2246752,55.2313029 37.1526334,55.5136515 37.0594531,55.7255249 C36.9662727,55.9373983 36.8508349,56.0921224 36.7131396,56.1896973 C36.5754443,56.2872721 36.4222867,56.3360596 36.2536669,56.3360596 Z M42.5528708,58.088501 C42.9449606,58.088501 43.2553651,57.9735107 43.4840842,57.7435303 C43.7128032,57.5135498 43.8271628,57.2277832 43.8271628,56.8862305 C43.8271628,56.5380046 43.7128032,56.2484741 43.4840842,56.0176392 C43.2553651,55.7868042 42.9449606,55.6713867 42.5528708,55.6713867 C42.1644431,55.6713867 41.8549745,55.7868042 41.624465,56.0176392 C41.3939556,56.2484741 41.2787009,56.5380046 41.2787009,56.8862305 C41.2787009,57.2277832 41.3939556,57.5135498 41.624465,57.7435303 C41.8549745,57.9735107 42.1644431,58.088501 42.5528708,58.088501 Z M50.6637433,52.1631588 L50.644,52.157 L50.7651925,52.0887085 C50.8967908,52.0081258 51.0195545,51.9184448 51.1334835,51.8196655 L51.2977511,51.6646729 C51.5604871,51.3949788 51.7594617,51.0912069 51.8946749,50.7533569 C52.0298881,50.415507 52.0974947,50.0655111 52.0974947,49.7033691 C52.0974947,48.9950358 51.9565442,48.3995565 51.6746432,47.9169312 C51.3927421,47.4343058 51.001283,47.0714111 50.5002657,46.8282471 C49.9992485,46.585083 49.4191093,46.463501 48.7598483,46.463501 C48.1697604,46.463501 47.632651,46.5913696 47.1485201,46.8471069 C46.6643893,47.1028442 46.2804578,47.4632975 45.9967257,47.9284668 C45.7129936,48.3936361 45.5711276,48.9381917 45.5711276,49.5621338 L47.7636324,49.5621338 C47.7636324,49.298055 47.8115857,49.0698649 47.9074923,48.8775635 C48.0033989,48.685262 48.1332003,48.538208 48.2968966,48.4364014 C48.4605929,48.3345947 48.6343193,48.2836914 48.8180758,48.2836914 C49.0665296,48.2836914 49.2709973,48.3464762 49.4314791,48.4720459 C49.5919609,48.5976156 49.7114677,48.7697347 49.7899996,48.9884033 C49.8685315,49.2070719 49.9077975,49.4569499 49.9077975,49.7380371 C49.9077975,50.053304 49.8655611,50.3290609 49.7810885,50.5653076 C49.6966158,50.8015544 49.5660209,50.9841309 49.3893038,51.1130371 C49.2125867,51.2419434 48.9888522,51.3063965 48.7181002,51.3063965 L47.6504733,51.3063965 L47.65,52.538 L47.6504733,53.0789795 L48.7181002,53.0789795 C49.0013033,53.0789795 49.2416801,53.1369222 49.4392306,53.2528076 C49.636781,53.368693 49.7872734,53.5508626 49.8907076,53.7993164 C49.9941419,54.0477702 50.045859,54.3738607 50.045859,54.7775879 C50.045859,55.0881348 49.9966443,55.360555 49.898215,55.5948486 C49.7997856,55.8291423 49.6573295,56.0112508 49.4708468,56.1411743 C49.284364,56.2710978 49.0623792,56.3360596 48.8048922,56.3360596 C48.5846774,56.3360596 48.3891207,56.2733358 48.2182223,56.1478882 C48.0473238,56.0224406 47.9108899,55.8494873 47.8089205,55.6290283 C47.7069511,55.4085693 47.6559664,55.1584473 47.6559664,54.8786621 L45.4709078,54.8786621 C45.4709078,55.436849 45.5619519,55.9226481 45.7440401,56.3360596 C45.9261284,56.749471 46.1733207,57.0915527 46.4856173,57.3623047 C46.7979138,57.6330566 47.1508598,57.8330688 47.5444552,57.9623413 C47.9380506,58.0916138 48.3413505,58.15625 48.7543551,58.15625 C49.2467053,58.15625 49.7042452,58.0824585 50.1269747,57.9348755 C50.5497042,57.7872925 50.9194145,57.5702718 51.2361056,57.2838135 C51.5527967,56.9973551 51.7994397,56.6453451 51.9760348,56.2277832 C52.1526298,55.8102214 52.2409274,55.3358154 52.2409274,54.8045654 C52.2409274,54.3691813 52.1766777,53.9721069 52.0481783,53.6133423 C51.919679,53.2545776 51.7240003,52.945577 51.4611422,52.6863403 C51.2420938,52.4703098 50.9762942,52.295916 50.6637433,52.1631588 Z M19.1825471,16.6413529 L18.7656247,16.9985241 C18.7285956,17.0304815 18.6920497,17.0629445 18.6556118,17.0955533 C18.3908742,17.3328909 18.1334098,17.5758977 17.8833242,17.8248413 C16.4236768,19.2790428 15.1658944,20.9850073 14.1798695,22.92019 L14.1714009,22.9337429 C11.3775058,28.4389995 11.1625412,35.1579697 14.1798695,41.07981 C14.6813336,42.0639886 14.2900161,43.26834 13.3058375,43.769804 C12.3216588,44.2712681 11.1173075,43.8799506 10.6158434,42.895772 C5.81797015,33.4794155 7.83064201,22.3834809 14.8296677,15.2222517 C14.850733,15.2008438 14.8714511,15.179708 14.8922043,15.1586152 C14.9104405,15.139985 14.9291539,15.1210437 14.9479024,15.1021304 C17.2069308,12.8215577 19.875669,11.0494059 22.7706889,9.84503147 L22.8941805,9.79310857 C25.6890775,8.64346589 28.5963776,8.06080361 31.4777532,8.00017638 L31.778132,7.99599872 L32.1646034,7.99559394 C35.2935745,8.0143734 38.4596326,8.64773417 41.4855332,9.95309508 C44.1336629,11.0910354 46.5859536,12.7066438 48.699853,14.7538836 C56.0772318,21.8930451 58.2878851,33.2716628 53.3841566,42.895772 C52.8826925,43.8799506 51.6783412,44.2712681 50.6941625,43.769804 C49.7099839,43.26834 49.3186664,42.0639886 49.8201305,41.07981 C52.8340607,35.1646388 52.6229743,28.4541323 49.8380287,22.9523475 L49.8201305,22.92019 C48.8151803,20.9478643 47.5279404,19.2136402 46.0327031,17.7416568 C44.6098457,16.3422213 42.9521096,15.1338538 41.07981,14.1798695 C40.7707183,14.0223794 40.459455,13.8736952 40.1463059,13.733724 C37.6060832,12.6024475 34.8411128,12.0031754 32.0362515,11.9958077 C29.0868464,11.9928516 26.1803333,12.6444405 23.530398,13.8809015 C23.3264157,13.9771479 23.1228361,14.0766162 22.92019,14.1798695 C21.5581013,14.8738884 20.3095701,15.7025393 19.1825471,16.6413529 Z M39.1783413,17.6963106 L37.587,19.16 L37.5462454,19.1428329 C35.6379132,18.3217897 33.5699054,17.9359195 31.5023868,18.0076427 C29.6877313,18.0740267 27.89266,18.490717 26.2262771,19.243124 C25.3058411,19.6602474 24.4160479,20.1850186 23.5745897,20.8191029 C22.9451266,21.2934373 22.3670096,21.8106332 21.8412404,22.363564 C21.4826672,22.7438562 21.1410145,23.1473985 20.8191029,23.5745897 L20.786151,23.6124297 C17.1478803,28.4719627 16.9821589,35.3336137 20.8191029,40.4254103 C21.1514761,40.8664845 21.0633566,41.4934876 20.6222824,41.8258609 C20.1812082,42.1582341 19.5542051,42.0701146 19.2218318,41.6290404 C14.3497746,35.163602 15.1246315,26.2012737 20.715466,20.6544764 C21.956002,19.4174452 23.3643423,18.4196539 24.8756233,17.6697778 L24.9938131,17.6121877 C25.0217026,17.5985689 25.0496195,17.5850378 25.0775635,17.5715943 C25.1268839,17.5477341 25.1759773,17.5245396 25.2251724,17.5016033 C27.3067767,16.5262363 29.5339096,16.0330984 31.7541578,16.0007863 C31.7908843,16.000568 31.8277304,16.0001027 31.8645808,15.9997641 C31.9269999,15.9990933 31.9890211,15.9990933 32.0510317,15.9990933 C34.2653712,16.0044326 36.4914348,16.4678828 38.5775759,17.4107352 C38.779525,17.5016287 38.9798297,17.5968272 39.1783413,17.6963106 Z M44.8388165,26.4113146 L46.3025877,24.821063 L46.3710902,24.9586231 C48.9327233,30.1975741 48.5279925,36.6528554 44.7781682,41.6290404 C44.4457949,42.0701146 43.8187918,42.1582341 43.3777176,41.8258609 C42.9366434,41.4934876 42.8485239,40.8664845 43.1808971,40.4254103 C46.3266923,36.2507992 46.7819487,30.8865154 44.8388165,26.4113146 Z M43.3137085,20.6862915 C43.7089061,21.0814891 43.7221615,21.718022 43.3437587,22.1293293 L35.6882595,30.4491359 C36.2989798,31.9030135 36.0123689,33.6444853 34.8284271,34.8284271 C33.7284222,35.9284321 32.1471384,36.2538303 30.7623942,35.804622 L29.1114724,37.5992058 C28.3729132,38.4019875 27.1144849,38.4281934 26.3431458,37.6568542 C25.5718066,36.8855151 25.5980125,35.6270868 26.4007942,34.8885276 L28.195033,33.2365417 C27.7463364,31.8520516 28.0718497,30.271296 29.1715729,29.1715729 C30.3552473,27.9878985 32.0961998,27.7011498 33.5498788,28.3113267 L41.8706707,20.6562413 C42.281978,20.2778385 42.9185109,20.2910939 43.3137085,20.6862915 Z" id="Shape" fill="#000000"></path>
    </g>
</svg>